<svg width="159" height="50" fill="#000" xmlns="http://www.w3.org/2000/svg"><path fill-rule="evenodd" clip-rule="evenodd" d="M41.402 3.421C42.432 1.381 44.392 0 46.636 0h4.813v6.516c0 3.694-2.692 6.7-6.003 6.7h-.2v14.306c0 8.61-6.275 15.613-13.99 15.613h-1.44V50h-.768c-3.556 0-6.494-3.009-6.878-6.865H7.028c-3.603 0-6.533-3.27-6.533-7.29V28c0-4.02 2.93-7.29 6.533-7.29h26.536c2.202 0 3.993-2 3.993-4.457v-3.038h-.2c-3.31 0-6.002-3.005-6.002-6.7V0h4.813c2.244 0 4.204 1.381 5.234 3.421ZM18.508 36.773h2.986V33.44h-2.986v3.332ZM64.86.958h-3.445l5.306 9.403v5.142h3.054v-5.142L75.08.958h-3.444l-3.317 6.264h-.142L64.86.958Zm11.625 14.055c.805.469 1.759.703 2.862.703 1.103 0 2.055-.234 2.855-.703a4.797 4.797 0 0 0 1.86-1.974c.436-.848.654-1.83.654-2.948 0-1.127-.218-2.111-.653-2.954a4.741 4.741 0 0 0-1.861-1.975c-.8-.473-1.752-.71-2.855-.71s-2.057.237-2.862.71a4.754 4.754 0 0 0-1.854 1.975c-.436.843-.653 1.827-.653 2.954 0 1.118.217 2.1.653 2.948a4.81 4.81 0 0 0 1.854 1.974Zm4.133-2.067c-.336.284-.755.427-1.257.427-.507 0-.933-.143-1.278-.427-.341-.288-.6-.681-.775-1.179-.17-.497-.255-1.063-.255-1.697 0-.635.085-1.2.255-1.697.176-.498.434-.89.775-1.18.345-.288.772-.433 1.278-.433.502 0 .921.145 1.257.434.336.288.59.681.76 1.179.175.497.263 1.062.263 1.697 0 .634-.088 1.2-.263 1.697-.17.498-.424.89-.76 1.18ZM93.68 4.594v6.264c.005.488-.092.898-.29 1.229a1.95 1.95 0 0 1-.768.753 2.175 2.175 0 0 1-1.023.248c-.573 0-1.03-.187-1.37-.56-.341-.375-.514-.884-.519-1.528V4.594h-3.026v6.946c.005.852.161 1.584.47 2.195.312.61.745 1.082 1.299 1.413.554.332 1.196.497 1.925.497.819 0 1.513-.194 2.08-.582a3.221 3.221 0 0 0 1.23-1.541h.113v1.981h2.905V4.594h-3.026Zm5.446 0v10.91h3.026V9.33c0-.445.099-.838.298-1.179.203-.34.478-.606.824-.795.35-.194.748-.291 1.193-.291a5.3 5.3 0 0 1 .689.05c.251.033.447.07.589.113V4.544a3.43 3.43 0 0 0-.461-.078 4.595 4.595 0 0 0-.49-.028c-.611 0-1.151.175-1.62.525-.469.346-.802.857-1.001 1.535h-.114V4.594h-2.933ZM111.994.958v14.545h9.311v-2.535h-6.235V.958h-3.076Zm13.358 14.055c.805.469 1.759.703 2.862.703 1.103 0 2.055-.234 2.855-.703a4.8 4.8 0 0 0 1.861-1.974c.436-.848.653-1.83.653-2.948 0-1.127-.217-2.111-.653-2.954a4.744 4.744 0 0 0-1.861-1.975c-.8-.473-1.752-.71-2.855-.71s-2.057.237-2.862.71a4.759 4.759 0 0 0-1.854 1.975c-.435.843-.653 1.827-.653 2.954 0 1.118.218 2.1.653 2.948a4.816 4.816 0 0 0 1.854 1.974Zm4.133-2.067c-.336.284-.755.427-1.257.427-.506 0-.932-.143-1.278-.427-.341-.288-.599-.681-.774-1.179-.171-.497-.256-1.063-.256-1.697 0-.635.085-1.2.256-1.697.175-.498.433-.89.774-1.18.346-.288.772-.433 1.278-.433.502 0 .921.145 1.257.434.337.288.59.681.76 1.179.176.497.263 1.062.263 1.697 0 .634-.087 1.2-.263 1.697-.17.498-.423.89-.76 1.18Zm8.459 6.47c.701.27 1.541.405 2.521.405 1.042 0 1.963-.158 2.763-.476.805-.312 1.435-.78 1.889-1.406.455-.625.682-1.401.682-2.33V4.595h-3.004v1.832h-.114a4.069 4.069 0 0 0-.589-.894 2.936 2.936 0 0 0-.994-.767c-.412-.209-.924-.313-1.534-.313-.801 0-1.537.206-2.209.618-.668.412-1.203 1.032-1.605 1.86-.403.83-.604 1.862-.604 3.097 0 1.208.196 2.207.589 2.998.398.785.931 1.37 1.598 1.754a4.482 4.482 0 0 0 2.238.568c.577 0 1.074-.085 1.491-.256.417-.17.758-.39 1.023-.66.265-.27.464-.557.596-.86h.128v1.996c0 .748-.215 1.28-.646 1.598-.426.322-.968.483-1.626.483-.441 0-.815-.06-1.123-.177a1.96 1.96 0 0 1-.731-.455 1.824 1.824 0 0 1-.405-.61l-2.798.376c.123.573.39 1.089.802 1.548.412.46.966.821 1.662 1.087Zm3.821-6.704c-.336.242-.748.362-1.236.362-.497 0-.916-.123-1.257-.37-.336-.25-.594-.603-.774-1.057-.175-.46-.263-1.004-.263-1.634 0-.62.088-1.167.263-1.64.175-.474.433-.843.774-1.108.341-.27.76-.405 1.257-.405.488 0 .902.13 1.243.39.341.26.602.628.782 1.101.179.469.269 1.023.269 1.662 0 .64-.092 1.189-.277 1.648-.179.454-.44.805-.781 1.051Zm8.509 2.301c.805.469 1.759.703 2.862.703 1.103 0 2.055-.234 2.855-.703a4.8 4.8 0 0 0 1.861-1.974c.435-.848.653-1.83.653-2.948 0-1.127-.218-2.111-.653-2.954a4.744 4.744 0 0 0-1.861-1.975c-.8-.473-1.752-.71-2.855-.71s-2.057.237-2.862.71a4.759 4.759 0 0 0-1.854 1.975c-.436.843-.653 1.827-.653 2.954 0 1.118.217 2.1.653 2.948a4.816 4.816 0 0 0 1.854 1.974Zm4.133-2.067c-.336.284-.755.427-1.257.427-.506 0-.933-.143-1.278-.427-.341-.288-.599-.681-.774-1.179-.171-.497-.256-1.063-.256-1.697 0-.635.085-1.2.256-1.697.175-.498.433-.89.774-1.18.345-.288.772-.433 1.278-.433.502 0 .921.145 1.257.434.336.288.59.681.76 1.179.175.497.263 1.062.263 1.697 0 .634-.088 1.2-.263 1.697-.17.498-.424.89-.76 1.18Zm-92.14 10.012v14.545h3.076v-6.008h6.243v6.008h3.068V22.958h-3.068v6.001h-6.243v-6.001h-3.075Zm16.94 14.076c.81.455 1.775.682 2.897.682.9 0 1.693-.137 2.38-.412.69-.279 1.254-.667 1.69-1.164.44-.502.731-1.09.873-1.762l-2.798-.184a1.851 1.851 0 0 1-.454.696c-.2.189-.438.331-.718.426-.279.094-.587.142-.923.142-.507 0-.944-.107-1.314-.32a2.183 2.183 0 0 1-.86-.909c-.198-.393-.297-.86-.297-1.4v-.006h7.428v-.831c0-.928-.13-1.738-.39-2.43-.26-.695-.625-1.273-1.094-1.732a4.457 4.457 0 0 0-1.633-1.03 5.692 5.692 0 0 0-2.01-.348c-1.07 0-2.003.237-2.799.71a4.83 4.83 0 0 0-1.84 1.982c-.435.847-.653 1.832-.653 2.954 0 1.15.218 2.148.654 2.99a4.669 4.669 0 0 0 1.86 1.946Zm.478-6.086c.019-.392.12-.75.303-1.073a2.24 2.24 0 0 1 .824-.845c.355-.213.762-.32 1.221-.32.44 0 .827.098 1.158.292.336.19.599.452.788.788.19.336.284.722.284 1.158h-4.578Zm9.4-4.354v10.91h3.027V31.33c0-.445.099-.838.298-1.179.203-.34.478-.606.824-.795a2.42 2.42 0 0 1 1.193-.291c.208 0 .438.016.689.05.25.033.447.07.59.113v-2.685a4.562 4.562 0 0 0-.952-.107c-.611 0-1.151.176-1.62.526-.469.346-.802.857-1.001 1.534h-.114v-1.903h-2.933Zm9.75 10.44c.81.455 1.776.682 2.898.682.9 0 1.693-.137 2.38-.412.691-.279 1.254-.667 1.69-1.164.44-.502.731-1.09.873-1.762l-2.798-.184a1.86 1.86 0 0 1-.454.696c-.199.189-.438.331-.718.426a2.859 2.859 0 0 1-.923.142c-.507 0-.945-.107-1.314-.32a2.185 2.185 0 0 1-.86-.909c-.198-.393-.298-.86-.298-1.4v-.006h7.429v-.831c0-.928-.13-1.738-.39-2.43-.261-.695-.625-1.273-1.094-1.732a4.46 4.46 0 0 0-1.634-1.03 5.688 5.688 0 0 0-2.009-.348c-1.071 0-2.003.237-2.799.71a4.83 4.83 0 0 0-1.84 1.982c-.435.847-.653 1.832-.653 2.954 0 1.15.218 2.148.654 2.99a4.669 4.669 0 0 0 1.86 1.946Zm.48-6.086c.017-.392.118-.75.302-1.073.199-.355.473-.637.824-.845.355-.213.762-.32 1.221-.32.441 0 .826.098 1.158.292.336.19.599.452.788.788.19.336.284.722.284 1.158h-4.578Z" fill="#FAF6F8"/></svg>